<svg viewBox="0 0 2555 585" xmlns="http://www.w3.org/2000/svg" xml:space="preserve"
    style="fill-rule:evenodd;clip-rule:evenodd;stroke-linejoin:round;stroke-miterlimit:2">
    <g transform="matrix(2.15283 0 0 1.14453 -180.37 -330.374)">
        <path style="fill:none" d="M83.782 288.655h1186.69v510.546H83.782z" />
        <clipPath id="a">
            <path d="M83.782 288.655h1186.69v510.546H83.782z" />
        </clipPath>
        <g clip-path="url(#a)">
            <path
                d="M.465-.146H.208L.159 0H.003l.265-.711h.136L.67 0H.514L.465-.146ZM.248-.265h.177L.336-.531l-.088.266Z"
                style="fill:#93481b;fill-rule:nonzero" transform="matrix(185.02123 0 0 352.02193 475.4588 545.3093)" />
            <path
                d="M.602-.711v.468c0 .078-.025.14-.073.185C.48-.013.413.01.329.01.246.01.18-.012.131-.056.083-.1.058-.16.057-.237v-.474h.146v.469c0 .047.011.081.034.102.022.021.053.032.092.032.082 0 .124-.043.126-.13v-.473h.147Z"
                style="fill:#93481b;fill-rule:nonzero" transform="matrix(185.02123 0 0 352.02193 598.4148 545.3093)" />
            <path
                d="M.432-.187A.076.076 0 0 0 .403-.25C.383-.265.348-.281.297-.297.247-.314.206-.33.177-.346.096-.389.056-.448.056-.522c0-.038.01-.073.032-.103s.053-.053.093-.07a.3521.3521 0 0 1 .137-.026c.051 0 .096.009.136.028.039.018.07.044.092.078.022.033.033.071.033.114H.433c0-.033-.011-.058-.031-.076C.381-.595.353-.604.315-.604c-.035 0-.063.008-.083.023-.02.015-.03.035-.03.06 0 .023.012.042.035.058.023.015.058.03.103.044.083.025.144.056.182.093.038.037.057.083.057.138 0 .062-.023.11-.07.145C.463-.008.4.01.321.01a.364.364 0 0 1-.149-.03.239.239 0 0 1-.103-.083C.045-.137.034-.178.034-.224h.147c0 .079.047.118.14.118.035 0 .062-.007.082-.021a.0704.0704 0 0 0 .029-.06Z"
                style="fill:#93481b;fill-rule:nonzero" transform="matrix(185.02123 0 0 352.02193 720.1965 545.3093)" />
            <path d="M.599-.592H.381V0H.234v-.592H.02v-.119h.579v.119Z" style="fill:#93481b;fill-rule:nonzero"
                transform="matrix(185.02123 0 0 352.02193 833.9374 545.3093)" />
            <path d="M.491-.308H.21v.19h.33V0H.063v-.711h.476v.119H.21v.169h.281v.115Z"
                style="fill:#93481b;fill-rule:nonzero" transform="matrix(185.02123 0 0 352.02193 948.4007 545.3093)" />
            <path
                d="M.327-.26H.21V0H.063v-.711h.265c.084 0 .148.019.194.056.046.038.068.091.068.159 0 .048-.01.089-.031.121-.021.033-.053.058-.096.078l.154.29V0H.46L.327-.26ZM.21-.379h.118c.037 0 .065-.009.086-.028.02-.019.03-.044.03-.077 0-.034-.01-.06-.029-.079C.396-.583.367-.592.328-.592H.21v.213Z"
                style="fill:#93481b;fill-rule:nonzero" transform="matrix(185.02123 0 0 352.02193 1052.4751 545.3093)" />
            <path d="M.491-.308H.21v.19h.33V0H.063v-.711h.476v.119H.21v.169h.281v.115Z"
                style="fill:#93481b;fill-rule:nonzero" transform="matrix(185.02123 0 0 352.02193 1170.5527 545.3093)" />
            <path
                d="M.327-.26H.21V0H.063v-.711h.265c.084 0 .148.019.194.056.046.038.068.091.068.159 0 .048-.01.089-.031.121-.021.033-.053.058-.096.078l.154.29V0H.46L.327-.26ZM.21-.379h.118c.037 0 .065-.009.086-.028.02-.019.03-.044.03-.077 0-.034-.01-.06-.029-.079C.396-.583.367-.592.328-.592H.21v.213Z"
                style="fill:#5c5c5c;fill-rule:nonzero" transform="matrix(128.70366 0 0 236.78813 467.9215 791.3418)" />
            <path style="fill:#5c5c5c;fill-rule:nonzero" d="M.073-.711h.146V0H.073z"
                transform="matrix(128.70366 0 0 236.78813 550.058 791.3418)" />
            <path
                d="M.432-.187A.076.076 0 0 0 .403-.25C.383-.265.348-.281.297-.297.247-.314.206-.33.177-.346.096-.389.056-.448.056-.522c0-.038.01-.073.032-.103s.053-.053.093-.07a.3521.3521 0 0 1 .137-.026c.051 0 .096.009.136.028.039.018.07.044.092.078.022.033.033.071.033.114H.433c0-.033-.011-.058-.031-.076C.381-.595.353-.604.315-.604c-.035 0-.063.008-.083.023-.02.015-.03.035-.03.06 0 .023.012.042.035.058.023.015.058.03.103.044.083.025.144.056.182.093.038.037.057.083.057.138 0 .062-.023.11-.07.145C.463-.008.4.01.321.01a.364.364 0 0 1-.149-.03.239.239 0 0 1-.103-.083C.045-.137.034-.178.034-.224h.147c0 .079.047.118.14.118.035 0 .062-.007.082-.021a.0704.0704 0 0 0 .029-.06Z"
                style="fill:#5c5c5c;fill-rule:nonzero" transform="matrix(128.70366 0 0 236.78813 587.5753 791.3418)" />
            <path d="M.286-.285.21-.203V0H.063v-.711H.21v.322l.064-.088.182-.234h.18l-.253.316.26.395H.469L.286-.285Z"
                style="fill:#5c5c5c;fill-rule:nonzero" transform="matrix(128.70366 0 0 236.78813 666.6953 791.3418)" />
            <path
                d="M.21-.25V0H.063v-.711h.278c.053 0 .1.01.141.029.04.02.071.048.093.084a.23.23 0 0 1 .033.122c0 .07-.024.125-.072.165-.047.04-.113.061-.198.061H.21Zm0-.119h.131c.039 0 .068-.009.088-.027C.45-.415.46-.441.46-.475S.45-.538.429-.559C.409-.581.38-.592.344-.592H.21v.223Z"
                style="fill:#5c5c5c;fill-rule:nonzero" transform="matrix(128.70366 0 0 236.78813 780.4422 791.3418)" />
            <path d="M.599-.592H.381V0H.234v-.592H.02v-.119h.579v.119Z" style="fill:#5c5c5c;fill-rule:nonzero"
                transform="matrix(128.70366 0 0 236.78813 863.4595 791.3418)" />
            <path d="m.309-.391.148-.32h.16l-.234.453V0H.234v-.258L.001-.711h.161l.147.32Z"
                style="fill:#5c5c5c;fill-rule:nonzero" transform="matrix(128.70366 0 0 236.78813 944.0878 791.3418)" />
            <path d="M.21-.118h.311V0H.063v-.711H.21v.593Z" style="fill:#5c5c5c;fill-rule:nonzero"
                transform="matrix(128.70366 0 0 236.78813 1055.6976 791.3418)" />
            <path d="M.599-.592H.381V0H.234v-.592H.02v-.119h.579v.119Z" style="fill:#5c5c5c;fill-rule:nonzero"
                transform="matrix(128.70366 0 0 236.78813 1112.5078 791.3418)" />
            <path
                d="M.063 0v-.711h.219c.063 0 .119.014.168.042.049.028.088.068.115.12.028.052.042.111.042.177v.033c0 .066-.014.125-.041.176a.2835.2835 0 0 1-.115.12A.332.332 0 0 1 .284 0H.063ZM.21-.592v.474h.071c.057 0 .101-.018.131-.056.03-.037.046-.091.046-.16v-.038c0-.072-.014-.127-.044-.164C.384-.574.34-.592.282-.592H.21Z"
                style="fill:#5c5c5c;fill-rule:nonzero" transform="matrix(128.70366 0 0 236.78813 1192.1313 791.3418)" />
            <path
                d="m296.116 270.84 63 113.411 76.871.049-63.802-115.338c21.921-1.984 29.272-4.903 35.895-7.555C455.639 242.366 491 194.778 491 143.34c0-70.369-57.131-127.5-127.5-127.5l-79.506-.04 37.297 67.066 42.209-.026c33.391 0 60.5 27.11 60.5 60.5 0 33.391-27.109 60.5-60.5 60.5-1.608 0-152.482.558-152.482.558l-37.422 66.588 122.52-.146Z"
                style="fill:#5c5c5c" transform="matrix(.7256 0 0 1.36481 95.931 267.9643)" />
            <path
                d="M332.16 161.955 253.148 19.179h-45.322L4.7 387.63l76.499-.005 149.218-271.12 24.814 45.935 76.929-.485Z"
                style="fill:#93481b" transform="matrix(.7256 0 0 1.36481 80.3716 263.3536)" />
        </g>
    </g>
</svg>